<svg width="1440" height="669" viewBox="0 0 1440 669" fill="none" xmlns="http://www.w3.org/2000/svg">
<mask id="mask0_7437_101950" style="mask-type:alpha" maskUnits="userSpaceOnUse" x="0" y="0" width="1440" height="669">
<rect width="1440" height="669" fill="#D9D9D9"/>
</mask>
<g mask="url(#mask0_7437_101950)">
<path d="M-576.952 201.129C-565.962 96.2355 -504.524 -5.94492 -406.867 -86.9074C-360.782 -125.079 -307.48 -158.256 -249.036 -184.576C-182.402 -214.552 -110.91 -232.859 -37.3564 -246.065C47.2164 -261.189 133.481 -270.97 215.96 -294.915C292.085 -317.031 359.587 -352.767 421.73 -393.677C543.851 -474.167 649.521 -573.476 796.559 -628.036C865.939 -653.756 940.727 -665.942 1013.96 -658.94C1083.61 -652.27 1147.53 -630.863 1205.9 -604.704C1330.72 -548.693 1434.07 -465.728 1577.61 -432.923C1711.6 -402.288 1866.29 -414.911 1981.59 -350.813C2060.96 -306.637 2109.54 -238.324 2131.81 -164.626C2134.6 -158.546 2137.25 -152.38 2139.67 -146.116C2181.97 -35.6745 2164.12 88.1108 2116.47 202.337C2072.25 308.371 1997.02 412.125 1883.95 488.638C1771.92 564.551 1846.11 475.683 1703.61 551.533C1583.61 597.074 1493.53 515.527 1349.05 562.528C1079.23 650.303 986.418 514.1 904 500.257C747.918 474.042 658.869 509.786 583.5 528.501C434.5 565.501 334 627.502 138 627.502C-60.8634 627.502 -195.719 491.513 -270 500.258C-337.843 508.197 -341.547 560.863 -406.867 551.533C-534.233 533.317 -382.477 574.767 -461.62 500.258C-548.022 418.99 -588.313 310.298 -576.952 201.129Z" fill="#0071BC"/>
<path opacity="0.5" d="M1945.78 426.688C1824.68 643.048 1353.21 683.008 1101.01 632.504C923.147 602.027 884.657 447.004 917.661 340.819C931.124 297.504 987.346 249.753 1045.01 240.504C1174.48 217.226 1298.83 322.47 1423.28 258.716C1526.36 203.392 1548.77 78.1043 1635.2 7.64084C1728.77 -66.1178 1878.11 -29.8621 1944.71 64.3927C2026.55 172 2009.7 317.888 1945.76 426.683L1945.78 426.688Z" fill="url(#paint0_linear_7437_101950)"/>
<path style="mix-blend-mode:multiply" opacity="0.4" d="M1066 0C1055.27 57.0115 1029.49 111.738 989.867 157.438C911.69 247.57 782.076 299.853 654.936 292.501C641.427 291.731 627.817 290.351 614.156 288.7C542.746 280.125 469.972 264.493 405.91 291.211C351.519 313.903 316.748 362.589 267.66 393.47C203.447 433.876 117.012 440.482 42.3194 418.921C-32.3481 397.361 -95.6273 350.032 -141.862 293.225C-157.846 273.587 -171.987 252.774 -186.001 231.892V0H1066Z" fill="url(#paint1_linear_7437_101950)"/>
</g>
<defs>
<linearGradient id="paint0_linear_7437_101950" x1="1471.94" y1="237.999" x2="1376.84" y2="715.738" gradientUnits="userSpaceOnUse">
<stop stop-color="#7AB6F6" stop-opacity="0.2"/>
<stop offset="1" stop-color="#7AB6F6" stop-opacity="0.2"/>
</linearGradient>
<linearGradient id="paint1_linear_7437_101950" x1="-186.001" y1="215.49" x2="1066" y2="215.49" gradientUnits="userSpaceOnUse">
<stop stop-color="#EDEDED"/>
<stop offset="1" stop-color="#D7D7D7"/>
</linearGradient>
</defs>
</svg>
